<mxfile host="Electron" modified="2025-08-24T14:44:01.096Z" agent="Mozilla/5.0 (Macintosh; Intel Mac OS X 10_15_7) AppleWebKit/537.36 (KHTML, like Gecko) draw.io/24.5.1 Chrome/124.0.6367.207 Electron/30.0.6 Safari/537.36" etag="qw-nY4OedWOj-liY9mw1" version="24.5.1" type="device">
  <diagram name="第 1 页" id="M3o1P9P7BSfSJ8zf_l1Q">
    <mxGraphModel dx="867" dy="535" grid="1" gridSize="10" guides="1" tooltips="1" connect="1" arrows="1" fold="1" page="1" pageScale="1" pageWidth="827" pageHeight="1169" math="0" shadow="0">
      <root>
        <mxCell id="0" />
        <mxCell id="1" parent="0" />
        <mxCell id="-Ba2hZGBv5FWJ_MVf5gw-1" value="" style="verticalLabelPosition=bottom;shadow=0;dashed=0;align=center;html=1;verticalAlign=top;shape=mxgraph.electrical.logic_gates.d_type_flip-flop;" vertex="1" parent="1">
          <mxGeometry x="250" y="220" width="110" height="90" as="geometry" />
        </mxCell>
        <mxCell id="-Ba2hZGBv5FWJ_MVf5gw-2" value="" style="verticalLabelPosition=bottom;shadow=0;dashed=0;align=center;html=1;verticalAlign=top;shape=mxgraph.electrical.logic_gates.d_type_flip-flop;" vertex="1" parent="1">
          <mxGeometry x="570" y="220" width="110" height="90" as="geometry" />
        </mxCell>
        <mxCell id="-Ba2hZGBv5FWJ_MVf5gw-3" value="" style="endArrow=classic;html=1;rounded=0;entryX=0;entryY=0.25;entryDx=0;entryDy=0;entryPerimeter=0;" edge="1" parent="1" target="-Ba2hZGBv5FWJ_MVf5gw-1">
          <mxGeometry width="50" height="50" relative="1" as="geometry">
            <mxPoint x="130" y="243" as="sourcePoint" />
            <mxPoint x="400" y="290" as="targetPoint" />
          </mxGeometry>
        </mxCell>
        <mxCell id="-Ba2hZGBv5FWJ_MVf5gw-4" value="" style="edgeStyle=elbowEdgeStyle;elbow=horizontal;endArrow=classic;html=1;curved=0;rounded=0;endSize=8;startSize=8;entryX=0;entryY=0.75;entryDx=0;entryDy=0;entryPerimeter=0;" edge="1" parent="1" target="-Ba2hZGBv5FWJ_MVf5gw-2">
          <mxGeometry width="50" height="50" relative="1" as="geometry">
            <mxPoint x="130" y="390" as="sourcePoint" />
            <mxPoint x="190" y="370" as="targetPoint" />
            <Array as="points">
              <mxPoint x="520" y="330" />
            </Array>
          </mxGeometry>
        </mxCell>
        <mxCell id="-Ba2hZGBv5FWJ_MVf5gw-5" value="" style="edgeStyle=elbowEdgeStyle;elbow=horizontal;endArrow=classic;html=1;curved=0;rounded=0;endSize=8;startSize=8;entryX=0;entryY=0.75;entryDx=0;entryDy=0;entryPerimeter=0;" edge="1" parent="1" target="-Ba2hZGBv5FWJ_MVf5gw-1">
          <mxGeometry width="50" height="50" relative="1" as="geometry">
            <mxPoint x="180" y="390" as="sourcePoint" />
            <mxPoint x="380" y="280" as="targetPoint" />
            <Array as="points">
              <mxPoint x="180" y="340" />
            </Array>
          </mxGeometry>
        </mxCell>
        <mxCell id="-Ba2hZGBv5FWJ_MVf5gw-6" value="Clk" style="text;strokeColor=none;align=center;fillColor=none;html=1;verticalAlign=middle;whiteSpace=wrap;rounded=0;fontSize=15;" vertex="1" parent="1">
          <mxGeometry x="80" y="360" width="60" height="30" as="geometry" />
        </mxCell>
        <mxCell id="-Ba2hZGBv5FWJ_MVf5gw-7" value="组合逻辑" style="ellipse;shape=cloud;whiteSpace=wrap;html=1;fontSize=14;" vertex="1" parent="1">
          <mxGeometry x="400" y="190" width="120" height="80" as="geometry" />
        </mxCell>
        <mxCell id="-Ba2hZGBv5FWJ_MVf5gw-8" value="" style="endArrow=classic;html=1;rounded=0;exitX=1;exitY=0.25;exitDx=0;exitDy=0;exitPerimeter=0;entryX=0.102;entryY=0.671;entryDx=0;entryDy=0;entryPerimeter=0;" edge="1" parent="1" source="-Ba2hZGBv5FWJ_MVf5gw-1" target="-Ba2hZGBv5FWJ_MVf5gw-7">
          <mxGeometry width="50" height="50" relative="1" as="geometry">
            <mxPoint x="460" y="320" as="sourcePoint" />
            <mxPoint x="510" y="270" as="targetPoint" />
          </mxGeometry>
        </mxCell>
        <mxCell id="-Ba2hZGBv5FWJ_MVf5gw-9" value="" style="endArrow=classic;html=1;rounded=0;entryX=0;entryY=0.25;entryDx=0;entryDy=0;entryPerimeter=0;exitX=0.977;exitY=0.644;exitDx=0;exitDy=0;exitPerimeter=0;" edge="1" parent="1" source="-Ba2hZGBv5FWJ_MVf5gw-7" target="-Ba2hZGBv5FWJ_MVf5gw-2">
          <mxGeometry width="50" height="50" relative="1" as="geometry">
            <mxPoint x="460" y="320" as="sourcePoint" />
            <mxPoint x="510" y="270" as="targetPoint" />
          </mxGeometry>
        </mxCell>
        <mxCell id="-Ba2hZGBv5FWJ_MVf5gw-10" value="" style="endArrow=classic;html=1;rounded=0;exitX=1;exitY=0.25;exitDx=0;exitDy=0;exitPerimeter=0;" edge="1" parent="1" source="-Ba2hZGBv5FWJ_MVf5gw-2">
          <mxGeometry width="50" height="50" relative="1" as="geometry">
            <mxPoint x="530" y="320" as="sourcePoint" />
            <mxPoint x="760" y="243" as="targetPoint" />
          </mxGeometry>
        </mxCell>
        <mxCell id="-Ba2hZGBv5FWJ_MVf5gw-11" value="输入端口" style="text;strokeColor=none;align=center;fillColor=none;html=1;verticalAlign=middle;whiteSpace=wrap;rounded=0;fontSize=15;" vertex="1" parent="1">
          <mxGeometry x="75" y="210" width="70" height="30" as="geometry" />
        </mxCell>
        <mxCell id="-Ba2hZGBv5FWJ_MVf5gw-13" value="" style="endArrow=none;dashed=1;html=1;rounded=0;" edge="1" parent="1">
          <mxGeometry width="50" height="50" relative="1" as="geometry">
            <mxPoint x="150" y="210" as="sourcePoint" />
            <mxPoint x="150" y="160" as="targetPoint" />
          </mxGeometry>
        </mxCell>
        <mxCell id="-Ba2hZGBv5FWJ_MVf5gw-14" value="" style="endArrow=none;dashed=1;html=1;rounded=0;" edge="1" parent="1">
          <mxGeometry width="50" height="50" relative="1" as="geometry">
            <mxPoint x="270" y="210" as="sourcePoint" />
            <mxPoint x="270" y="160" as="targetPoint" />
          </mxGeometry>
        </mxCell>
        <mxCell id="-Ba2hZGBv5FWJ_MVf5gw-15" value="" style="endArrow=none;dashed=1;html=1;rounded=0;" edge="1" parent="1">
          <mxGeometry width="50" height="50" relative="1" as="geometry">
            <mxPoint x="301.6" y="210" as="sourcePoint" />
            <mxPoint x="301.6" y="160" as="targetPoint" />
          </mxGeometry>
        </mxCell>
        <mxCell id="-Ba2hZGBv5FWJ_MVf5gw-16" value="" style="endArrow=none;dashed=1;html=1;rounded=0;" edge="1" parent="1">
          <mxGeometry width="50" height="50" relative="1" as="geometry">
            <mxPoint x="590" y="210" as="sourcePoint" />
            <mxPoint x="590" y="160" as="targetPoint" />
          </mxGeometry>
        </mxCell>
        <mxCell id="-Ba2hZGBv5FWJ_MVf5gw-17" value="" style="endArrow=none;dashed=1;html=1;rounded=0;" edge="1" parent="1">
          <mxGeometry width="50" height="50" relative="1" as="geometry">
            <mxPoint x="624.6" y="210" as="sourcePoint" />
            <mxPoint x="624.6" y="160" as="targetPoint" />
          </mxGeometry>
        </mxCell>
        <mxCell id="-Ba2hZGBv5FWJ_MVf5gw-18" value="" style="endArrow=none;dashed=1;html=1;rounded=0;" edge="1" parent="1">
          <mxGeometry width="50" height="50" relative="1" as="geometry">
            <mxPoint x="760" y="210" as="sourcePoint" />
            <mxPoint x="760" y="160" as="targetPoint" />
          </mxGeometry>
        </mxCell>
        <mxCell id="-Ba2hZGBv5FWJ_MVf5gw-19" value="" style="endArrow=classic;startArrow=classic;html=1;rounded=0;" edge="1" parent="1">
          <mxGeometry width="50" height="50" relative="1" as="geometry">
            <mxPoint x="150" y="190" as="sourcePoint" />
            <mxPoint x="270" y="190" as="targetPoint" />
          </mxGeometry>
        </mxCell>
        <mxCell id="-Ba2hZGBv5FWJ_MVf5gw-20" value="" style="endArrow=classic;startArrow=classic;html=1;rounded=0;" edge="1" parent="1">
          <mxGeometry width="50" height="50" relative="1" as="geometry">
            <mxPoint x="300" y="190" as="sourcePoint" />
            <mxPoint x="590" y="190" as="targetPoint" />
          </mxGeometry>
        </mxCell>
        <mxCell id="-Ba2hZGBv5FWJ_MVf5gw-21" value="" style="endArrow=classic;startArrow=classic;html=1;rounded=0;" edge="1" parent="1">
          <mxGeometry width="50" height="50" relative="1" as="geometry">
            <mxPoint x="630" y="190" as="sourcePoint" />
            <mxPoint x="760" y="190" as="targetPoint" />
          </mxGeometry>
        </mxCell>
        <mxCell id="-Ba2hZGBv5FWJ_MVf5gw-22" value="" style="curved=1;endArrow=classic;html=1;rounded=0;exitX=0.358;exitY=0.751;exitDx=0;exitDy=0;exitPerimeter=0;" edge="1" parent="1" source="-Ba2hZGBv5FWJ_MVf5gw-1">
          <mxGeometry width="50" height="50" relative="1" as="geometry">
            <mxPoint x="350" y="310" as="sourcePoint" />
            <mxPoint x="320" y="250" as="targetPoint" />
            <Array as="points">
              <mxPoint x="300" y="260" />
              <mxPoint x="300" y="250" />
              <mxPoint x="320" y="250" />
            </Array>
          </mxGeometry>
        </mxCell>
        <mxCell id="-Ba2hZGBv5FWJ_MVf5gw-23" value="b" style="text;strokeColor=none;align=center;fillColor=none;html=1;verticalAlign=middle;whiteSpace=wrap;rounded=0;fontSize=15;" vertex="1" parent="1">
          <mxGeometry x="344" y="210" width="46" height="30" as="geometry" />
        </mxCell>
        <mxCell id="-Ba2hZGBv5FWJ_MVf5gw-24" value="c" style="text;strokeColor=none;align=center;fillColor=none;html=1;verticalAlign=middle;whiteSpace=wrap;rounded=0;fontSize=15;" vertex="1" parent="1">
          <mxGeometry x="530" y="210" width="46" height="30" as="geometry" />
        </mxCell>
        <mxCell id="-Ba2hZGBv5FWJ_MVf5gw-25" value="1" style="text;strokeColor=none;align=center;fillColor=none;html=1;verticalAlign=middle;whiteSpace=wrap;rounded=0;fontSize=20;fontColor=#FFB570;" vertex="1" parent="1">
          <mxGeometry x="190" y="150" width="46" height="30" as="geometry" />
        </mxCell>
        <mxCell id="-Ba2hZGBv5FWJ_MVf5gw-26" value="2" style="text;strokeColor=none;align=center;fillColor=none;html=1;verticalAlign=middle;whiteSpace=wrap;rounded=0;fontSize=20;fontColor=#FFB570;" vertex="1" parent="1">
          <mxGeometry x="429" y="150" width="46" height="30" as="geometry" />
        </mxCell>
        <mxCell id="-Ba2hZGBv5FWJ_MVf5gw-27" value="3" style="text;strokeColor=none;align=center;fillColor=none;html=1;verticalAlign=middle;whiteSpace=wrap;rounded=0;fontSize=20;fontColor=#FFB570;" vertex="1" parent="1">
          <mxGeometry x="672" y="150" width="46" height="30" as="geometry" />
        </mxCell>
        <mxCell id="-Ba2hZGBv5FWJ_MVf5gw-28" value="" style="pointerEvents=1;verticalLabelPosition=bottom;shadow=0;dashed=0;align=center;html=1;verticalAlign=top;shape=mxgraph.electrical.waveforms.square_wave;" vertex="1" parent="1">
          <mxGeometry x="120" y="500" width="260" height="50" as="geometry" />
        </mxCell>
        <mxCell id="-Ba2hZGBv5FWJ_MVf5gw-30" value="" style="pointerEvents=1;verticalLabelPosition=bottom;shadow=0;dashed=0;align=center;html=1;verticalAlign=top;shape=mxgraph.electrical.waveforms.square_wave;" vertex="1" parent="1">
          <mxGeometry x="380" y="500" width="260" height="50" as="geometry" />
        </mxCell>
        <mxCell id="-Ba2hZGBv5FWJ_MVf5gw-31" value="" style="pointerEvents=1;verticalLabelPosition=bottom;shadow=0;dashed=0;align=center;html=1;verticalAlign=top;shape=mxgraph.electrical.waveforms.square_wave;" vertex="1" parent="1">
          <mxGeometry x="640" y="500" width="260" height="50" as="geometry" />
        </mxCell>
        <mxCell id="-Ba2hZGBv5FWJ_MVf5gw-32" value="b" style="text;strokeColor=none;align=center;fillColor=none;html=1;verticalAlign=middle;whiteSpace=wrap;rounded=0;fontSize=15;" vertex="1" parent="1">
          <mxGeometry x="282" y="595" width="46" height="30" as="geometry" />
        </mxCell>
        <mxCell id="-Ba2hZGBv5FWJ_MVf5gw-34" value="" style="pointerEvents=1;verticalLabelPosition=bottom;shadow=0;dashed=0;align=center;html=1;verticalAlign=top;shape=mxgraph.electrical.waveforms.step_1;" vertex="1" parent="1">
          <mxGeometry x="345" y="590" width="130" height="40" as="geometry" />
        </mxCell>
        <mxCell id="-Ba2hZGBv5FWJ_MVf5gw-35" value="" style="endArrow=none;html=1;rounded=0;exitX=0.974;exitY=0.057;exitDx=0;exitDy=0;exitPerimeter=0;" edge="1" parent="1">
          <mxGeometry width="50" height="50" relative="1" as="geometry">
            <mxPoint x="474.9999999999999" y="589.96" as="sourcePoint" />
            <mxPoint x="630" y="590" as="targetPoint" />
          </mxGeometry>
        </mxCell>
        <mxCell id="-Ba2hZGBv5FWJ_MVf5gw-36" value="" style="pointerEvents=1;verticalLabelPosition=bottom;shadow=0;dashed=0;align=center;html=1;verticalAlign=top;shape=mxgraph.electrical.waveforms.step_2;" vertex="1" parent="1">
          <mxGeometry x="628" y="590" width="90" height="40" as="geometry" />
        </mxCell>
        <mxCell id="-Ba2hZGBv5FWJ_MVf5gw-37" value="c" style="text;strokeColor=none;align=center;fillColor=none;html=1;verticalAlign=middle;whiteSpace=wrap;rounded=0;fontSize=15;" vertex="1" parent="1">
          <mxGeometry x="282" y="655.04" width="46" height="30" as="geometry" />
        </mxCell>
        <mxCell id="-Ba2hZGBv5FWJ_MVf5gw-38" value="" style="pointerEvents=1;verticalLabelPosition=bottom;shadow=0;dashed=0;align=center;html=1;verticalAlign=top;shape=mxgraph.electrical.waveforms.step_1;" vertex="1" parent="1">
          <mxGeometry x="520" y="650.06" width="130" height="40" as="geometry" />
        </mxCell>
        <mxCell id="-Ba2hZGBv5FWJ_MVf5gw-39" value="" style="endArrow=none;html=1;rounded=0;exitX=0.974;exitY=0.057;exitDx=0;exitDy=0;exitPerimeter=0;" edge="1" parent="1">
          <mxGeometry width="50" height="50" relative="1" as="geometry">
            <mxPoint x="649.9999999999999" y="650.02" as="sourcePoint" />
            <mxPoint x="805" y="650.06" as="targetPoint" />
          </mxGeometry>
        </mxCell>
        <mxCell id="-Ba2hZGBv5FWJ_MVf5gw-40" value="" style="pointerEvents=1;verticalLabelPosition=bottom;shadow=0;dashed=0;align=center;html=1;verticalAlign=top;shape=mxgraph.electrical.waveforms.step_2;" vertex="1" parent="1">
          <mxGeometry x="803" y="650.06" width="90" height="40" as="geometry" />
        </mxCell>
        <mxCell id="-Ba2hZGBv5FWJ_MVf5gw-41" value="" style="endArrow=none;html=1;rounded=0;entryX=0.014;entryY=0.998;entryDx=0;entryDy=0;entryPerimeter=0;" edge="1" parent="1" target="-Ba2hZGBv5FWJ_MVf5gw-38">
          <mxGeometry width="50" height="50" relative="1" as="geometry">
            <mxPoint x="350" y="690" as="sourcePoint" />
            <mxPoint x="550" y="590" as="targetPoint" />
          </mxGeometry>
        </mxCell>
        <mxCell id="-Ba2hZGBv5FWJ_MVf5gw-42" value="" style="endArrow=none;dashed=1;html=1;rounded=0;" edge="1" parent="1">
          <mxGeometry width="50" height="50" relative="1" as="geometry">
            <mxPoint x="379.17" y="595" as="sourcePoint" />
            <mxPoint x="379.17" y="545" as="targetPoint" />
          </mxGeometry>
        </mxCell>
        <mxCell id="-Ba2hZGBv5FWJ_MVf5gw-43" value="" style="endArrow=none;dashed=1;html=1;rounded=0;" edge="1" parent="1">
          <mxGeometry width="50" height="50" relative="1" as="geometry">
            <mxPoint x="410" y="710" as="sourcePoint" />
            <mxPoint x="409.79" y="545" as="targetPoint" />
          </mxGeometry>
        </mxCell>
        <mxCell id="-Ba2hZGBv5FWJ_MVf5gw-44" value="" style="endArrow=classic;startArrow=classic;html=1;rounded=0;" edge="1" parent="1">
          <mxGeometry width="50" height="50" relative="1" as="geometry">
            <mxPoint x="380" y="570" as="sourcePoint" />
            <mxPoint x="410" y="570" as="targetPoint" />
          </mxGeometry>
        </mxCell>
        <mxCell id="-Ba2hZGBv5FWJ_MVf5gw-45" value="1" style="text;strokeColor=none;align=center;fillColor=none;html=1;verticalAlign=middle;whiteSpace=wrap;rounded=0;fontSize=20;fontColor=#FFB570;" vertex="1" parent="1">
          <mxGeometry x="372" y="530" width="46" height="30" as="geometry" />
        </mxCell>
        <mxCell id="-Ba2hZGBv5FWJ_MVf5gw-46" value="" style="endArrow=none;dashed=1;html=1;rounded=0;" edge="1" parent="1">
          <mxGeometry width="50" height="50" relative="1" as="geometry">
            <mxPoint x="585" y="710" as="sourcePoint" />
            <mxPoint x="585" y="610" as="targetPoint" />
          </mxGeometry>
        </mxCell>
        <mxCell id="-Ba2hZGBv5FWJ_MVf5gw-47" value="" style="endArrow=classic;startArrow=classic;html=1;rounded=0;" edge="1" parent="1">
          <mxGeometry width="50" height="50" relative="1" as="geometry">
            <mxPoint x="410" y="640" as="sourcePoint" />
            <mxPoint x="580" y="640" as="targetPoint" />
          </mxGeometry>
        </mxCell>
        <mxCell id="-Ba2hZGBv5FWJ_MVf5gw-48" value="2" style="text;strokeColor=none;align=center;fillColor=none;html=1;verticalAlign=middle;whiteSpace=wrap;rounded=0;fontSize=20;fontColor=#FFB570;" vertex="1" parent="1">
          <mxGeometry x="474" y="610" width="46" height="30" as="geometry" />
        </mxCell>
        <mxCell id="-Ba2hZGBv5FWJ_MVf5gw-49" value="" style="endArrow=none;dashed=1;html=1;rounded=0;" edge="1" parent="1">
          <mxGeometry width="50" height="50" relative="1" as="geometry">
            <mxPoint x="640" y="710" as="sourcePoint" />
            <mxPoint x="640" y="485" as="targetPoint" />
          </mxGeometry>
        </mxCell>
        <mxCell id="-Ba2hZGBv5FWJ_MVf5gw-50" value="" style="endArrow=none;dashed=1;html=1;rounded=0;" edge="1" parent="1">
          <mxGeometry width="50" height="50" relative="1" as="geometry">
            <mxPoint x="610" y="639" as="sourcePoint" />
            <mxPoint x="610" y="589" as="targetPoint" />
          </mxGeometry>
        </mxCell>
        <mxCell id="-Ba2hZGBv5FWJ_MVf5gw-52" value="" style="endArrow=classic;startArrow=classic;html=1;rounded=0;" edge="1" parent="1">
          <mxGeometry width="50" height="50" relative="1" as="geometry">
            <mxPoint x="590" y="671" as="sourcePoint" />
            <mxPoint x="640" y="671" as="targetPoint" />
          </mxGeometry>
        </mxCell>
        <mxCell id="-Ba2hZGBv5FWJ_MVf5gw-53" value="5" style="text;strokeColor=none;align=center;fillColor=none;html=1;verticalAlign=middle;whiteSpace=wrap;rounded=0;fontSize=20;fontColor=#FFB570;" vertex="1" parent="1">
          <mxGeometry x="594" y="640" width="46" height="30" as="geometry" />
        </mxCell>
        <mxCell id="-Ba2hZGBv5FWJ_MVf5gw-54" value="" style="endArrow=classic;startArrow=classic;html=1;rounded=0;" edge="1" parent="1">
          <mxGeometry width="50" height="50" relative="1" as="geometry">
            <mxPoint x="610" y="608" as="sourcePoint" />
            <mxPoint x="640" y="608" as="targetPoint" />
          </mxGeometry>
        </mxCell>
        <mxCell id="-Ba2hZGBv5FWJ_MVf5gw-55" value="3" style="text;strokeColor=none;align=center;fillColor=none;html=1;verticalAlign=middle;whiteSpace=wrap;rounded=0;fontSize=20;fontColor=#FFB570;" vertex="1" parent="1">
          <mxGeometry x="602" y="573" width="46" height="30" as="geometry" />
        </mxCell>
        <mxCell id="-Ba2hZGBv5FWJ_MVf5gw-57" value="" style="endArrow=classic;startArrow=classic;html=1;rounded=0;" edge="1" parent="1">
          <mxGeometry width="50" height="50" relative="1" as="geometry">
            <mxPoint x="640" y="607.59" as="sourcePoint" />
            <mxPoint x="730" y="608" as="targetPoint" />
          </mxGeometry>
        </mxCell>
        <mxCell id="-Ba2hZGBv5FWJ_MVf5gw-58" value="4" style="text;strokeColor=none;align=center;fillColor=none;html=1;verticalAlign=middle;whiteSpace=wrap;rounded=0;fontSize=20;fontColor=#FFB570;" vertex="1" parent="1">
          <mxGeometry x="666" y="573" width="46" height="30" as="geometry" />
        </mxCell>
        <mxCell id="-Ba2hZGBv5FWJ_MVf5gw-59" value="" style="endArrow=none;dashed=1;html=1;rounded=0;" edge="1" parent="1">
          <mxGeometry width="50" height="50" relative="1" as="geometry">
            <mxPoint x="847.71" y="710" as="sourcePoint" />
            <mxPoint x="848" y="560" as="targetPoint" />
          </mxGeometry>
        </mxCell>
        <mxCell id="-Ba2hZGBv5FWJ_MVf5gw-60" value="" style="endArrow=classic;startArrow=classic;html=1;rounded=0;" edge="1" parent="1">
          <mxGeometry width="50" height="50" relative="1" as="geometry">
            <mxPoint x="640" y="671" as="sourcePoint" />
            <mxPoint x="840" y="671" as="targetPoint" />
          </mxGeometry>
        </mxCell>
        <mxCell id="-Ba2hZGBv5FWJ_MVf5gw-61" value="6" style="text;strokeColor=none;align=center;fillColor=none;html=1;verticalAlign=middle;whiteSpace=wrap;rounded=0;fontSize=20;fontColor=#FFB570;" vertex="1" parent="1">
          <mxGeometry x="718" y="640" width="46" height="30" as="geometry" />
        </mxCell>
        <mxCell id="-Ba2hZGBv5FWJ_MVf5gw-62" value="" style="endArrow=none;html=1;rounded=0;exitX=1;exitY=1.004;exitDx=0;exitDy=0;exitPerimeter=0;" edge="1" parent="1" source="-Ba2hZGBv5FWJ_MVf5gw-36">
          <mxGeometry width="50" height="50" relative="1" as="geometry">
            <mxPoint x="720" y="630" as="sourcePoint" />
            <mxPoint x="900" y="630" as="targetPoint" />
          </mxGeometry>
        </mxCell>
        <mxCell id="-Ba2hZGBv5FWJ_MVf5gw-63" value="" style="endArrow=none;dashed=1;html=1;rounded=0;" edge="1" parent="1">
          <mxGeometry width="50" height="50" relative="1" as="geometry">
            <mxPoint x="673" y="710" as="sourcePoint" />
            <mxPoint x="672.71" y="550" as="targetPoint" />
          </mxGeometry>
        </mxCell>
        <mxCell id="-Ba2hZGBv5FWJ_MVf5gw-64" value="" style="endArrow=classic;startArrow=classic;html=1;rounded=0;" edge="1" parent="1">
          <mxGeometry width="50" height="50" relative="1" as="geometry">
            <mxPoint x="642" y="573" as="sourcePoint" />
            <mxPoint x="672" y="573" as="targetPoint" />
          </mxGeometry>
        </mxCell>
        <mxCell id="-Ba2hZGBv5FWJ_MVf5gw-65" value="7" style="text;strokeColor=none;align=center;fillColor=none;html=1;verticalAlign=middle;whiteSpace=wrap;rounded=0;fontSize=20;fontColor=#FFB570;" vertex="1" parent="1">
          <mxGeometry x="634" y="546" width="46" height="20" as="geometry" />
        </mxCell>
        <mxCell id="-Ba2hZGBv5FWJ_MVf5gw-66" value="" style="endArrow=classic;startArrow=classic;html=1;rounded=0;" edge="1" parent="1">
          <mxGeometry width="50" height="50" relative="1" as="geometry">
            <mxPoint x="676" y="573" as="sourcePoint" />
            <mxPoint x="846" y="573" as="targetPoint" />
          </mxGeometry>
        </mxCell>
        <mxCell id="-Ba2hZGBv5FWJ_MVf5gw-67" value="8" style="text;strokeColor=none;align=center;fillColor=none;html=1;verticalAlign=middle;whiteSpace=wrap;rounded=0;fontSize=20;fontColor=#FFB570;" vertex="1" parent="1">
          <mxGeometry x="734" y="543" width="46" height="30" as="geometry" />
        </mxCell>
        <mxCell id="-Ba2hZGBv5FWJ_MVf5gw-68" value="" style="endArrow=none;dashed=1;html=1;rounded=0;" edge="1" parent="1">
          <mxGeometry width="50" height="50" relative="1" as="geometry">
            <mxPoint x="730" y="638" as="sourcePoint" />
            <mxPoint x="730" y="588" as="targetPoint" />
          </mxGeometry>
        </mxCell>
      </root>
    </mxGraphModel>
  </diagram>
</mxfile>
